<?xml version="1.0" encoding="UTF-8"?>
<svg version="1.1" xmlns="http://www.w3.org/2000/svg" width="225" height="225">
<path d="M0 0 C74.25 0 148.5 0 225 0 C225 74.25 225 148.5 225 225 C150.75 225 76.5 225 0 225 C0 150.75 0 76.5 0 0 Z " fill="#FDFEFE" transform="translate(0,0)"/>
<path d="M0 0 C1.39992187 0.02900391 1.39992187 0.02900391 2.828125 0.05859375 C10.92339139 1.45470253 17.95074884 6.42511747 24.9375 10.5 C26.10530076 11.17788361 27.2731893 11.85561601 28.44116211 12.53320312 C36.86282334 17.42725123 45.23804817 22.39667896 53.5703125 27.44140625 C57.48634913 29.81066252 61.42302412 32.1427218 65.3671875 34.46484375 C66.49890381 35.13451172 67.63062012 35.80417969 68.79663086 36.49414062 C71.00757037 37.80201585 73.22178519 39.10437474 75.43969727 40.40039062 C82.91097655 44.83577265 88.3860639 48.84168998 92.75 56.5625 C92.42 57.5525 92.09 58.5425 91.75 59.5625 C90.76 58.9025 89.77 58.2425 88.75 57.5625 C81.96480714 57.5885969 77.14749701 60.89416214 71.5 64.375 C70.52836914 64.96176514 69.55673828 65.54853027 68.55566406 66.15307617 C61.73179789 70.29248014 54.96604306 74.52583128 48.23754883 78.81835938 C43.56414431 81.79858608 38.86478224 84.73230627 34.13671875 87.625 C33.56255219 87.97656662 32.98838562 88.32813324 32.39682007 88.69035339 C29.56950672 90.42062764 26.73994252 92.14697878 23.90722656 93.8684082 C8.33297832 102.44203891 8.33297832 102.44203891 -1.25 116.5625 C-1.53724164 119.50546069 -1.52331646 122.43334957 -1.50878906 125.38842773 C-1.5122937 126.26709503 -1.51579834 127.14576233 -1.51940918 128.05105591 C-1.52819627 130.94948273 -1.52238747 133.84766453 -1.515625 136.74609375 C-1.51697264 138.76481676 -1.518914 140.78353945 -1.52142334 142.80226135 C-1.52437061 147.03137301 -1.52009012 151.26040013 -1.51074219 155.48950195 C-1.49935524 160.90440074 -1.50590489 166.31910109 -1.51788712 171.73399258 C-1.52512263 175.9024657 -1.52280987 180.07089198 -1.51763153 184.23936653 C-1.51629934 186.23561692 -1.51792766 188.2318716 -1.52259064 190.22811699 C-1.52768281 193.0212514 -1.51990745 195.81406699 -1.50878906 198.60717773 C-1.51283752 199.42866806 -1.51688599 200.25015839 -1.52105713 201.09654236 C-1.48798316 205.59294815 -1.19336599 209.41007543 0.75 213.5625 C1.74 213.8925 2.73 214.2225 3.75 214.5625 C3.75 214.8925 3.75 215.2225 3.75 215.5625 C-5.64175266 215.66148313 -11.81251328 212.60995456 -19.6875 207.75 C-20.83971984 207.05911514 -21.99306021 206.37009594 -23.14746094 205.68286133 C-25.45868367 204.3024384 -27.7625861 202.91099978 -30.06005859 201.5078125 C-32.80787709 199.8321185 -35.56515166 198.17518411 -38.33203125 196.53125 C-41.4788418 194.65999711 -44.61556592 192.77335913 -47.74609375 190.875 C-51.44332607 188.63825524 -55.15895128 186.43556832 -58.88656616 184.25004578 C-61.60598945 182.65414962 -64.32041437 181.04985212 -67.0345459 179.44497681 C-68.36951114 178.65834534 -69.70662363 177.87534473 -71.04602051 177.09628296 C-89.99229017 166.06893865 -89.99229017 166.06893865 -93.25 154.5625 C-93.6525458 151.42408684 -93.67107377 148.32944256 -93.65405273 145.16821289 C-93.66091599 144.26466568 -93.66777924 143.36111847 -93.67485046 142.43019104 C-93.69304288 139.46501628 -93.68929181 136.50037445 -93.68359375 133.53515625 C-93.6881591 131.46064585 -93.69346573 129.38613696 -93.69947815 127.31163025 C-93.70839438 122.97176962 -93.70600295 118.63209317 -93.69604492 114.29223633 C-93.6845561 108.74639052 -93.70477334 103.20118154 -93.73396206 97.65541935 C-93.75235757 93.37357076 -93.75202492 89.09187386 -93.74632454 84.80999565 C-93.74617174 82.7659764 -93.75218153 80.7219466 -93.76461601 78.67796516 C-93.77958789 75.81363739 -93.76880358 72.95047439 -93.75170898 70.08618164 C-93.76137695 69.25213806 -93.77104492 68.41809448 -93.78100586 67.55877686 C-93.69784594 60.8636159 -92.0712789 54.77758719 -87.57459164 49.65322971 C-81.57381892 43.87541459 -73.9135046 39.96343453 -66.75 35.8125 C-65.34299298 34.98891269 -63.93650809 34.16443278 -62.53051758 33.33911133 C-59.59858348 31.61879101 -56.66442395 29.9023526 -53.72900391 28.18798828 C-49.27833957 25.5842981 -44.8459456 22.95064034 -40.41796875 20.30859375 C-39.70258942 19.88202484 -38.98721008 19.45545593 -38.25015259 19.01596069 C-35.47631447 17.36171733 -32.70266055 15.70716994 -29.93017578 14.05065918 C-25.71528364 11.53397221 -21.4884264 9.03937076 -17.25 6.5625 C-15.69708252 5.64537231 -15.69708252 5.64537231 -14.11279297 4.7097168 C-5.44971229 -0.25117389 -5.44971229 -0.25117389 0 0 Z " fill="#FEFEFE" transform="translate(112.25,5.4375)"/>
<path d="M0 0 C1.55847656 -0.02900391 1.55847656 -0.02900391 3.1484375 -0.05859375 C12.67744992 1.3011642 20.98473417 7.41330007 29.125 12.25 C30.40777611 13.00763394 31.6907381 13.76495323 32.97387695 14.52197266 C36.86243964 16.81901083 40.74467833 19.12657363 44.625 21.4375 C45.50548004 21.96165497 45.50548004 21.96165497 46.40374756 22.49639893 C53.2223815 26.55716772 60.02487713 30.64392036 66.81689453 34.74902344 C69.51405921 36.37079277 72.22182428 37.97311545 74.93359375 39.5703125 C76.5391447 40.52590357 78.14461863 41.48162407 79.75 42.4375 C80.80610474 43.05020752 80.80610474 43.05020752 81.88354492 43.67529297 C89.55886081 48.28104487 94.85772933 53.19712986 97.81350708 61.79830933 C99.64767898 70.02376777 99.19451909 78.55507273 99.15625 86.94140625 C99.15894924 89.03165365 99.16283525 91.12189981 99.16784668 93.21214294 C99.17372006 97.57701663 99.16524772 101.94156127 99.14648438 106.30639648 C99.12368218 111.8801085 99.13684007 117.45305045 99.16077423 123.02673435 C99.17527857 127.33780138 99.17060521 131.64868799 99.16026306 135.95976067 C99.15760932 138.0141096 99.1608175 140.06847533 99.17018127 142.12280464 C99.21150303 153.7329036 99.15849744 163.04957824 92.9375 173.1875 C86.2268181 179.71681212 77.26791954 184.10163678 69.25 188.8125 C68.06771456 189.50966299 66.88558893 190.20709707 65.70361328 190.90478516 C63.24766925 192.35420894 60.79104571 193.80247118 58.33398438 195.25 C53.53279147 198.07993814 48.73994717 200.92391387 43.94702148 203.76782227 C40.56650581 205.77364141 37.18367128 207.77553152 33.80078125 209.77734375 C29.95893638 212.05147472 26.12262571 214.3343162 22.29296875 216.62890625 C21.5035791 217.0995752 20.71418945 217.57024414 19.90087891 218.05517578 C18.48015203 218.90234647 17.0616493 219.7532647 15.64599609 220.60888672 C8.19793299 225.03551042 1.2226414 225.37743507 -7.375 224.4375 C-11.40264833 222.96575124 -14.77593536 220.74507971 -18.375 218.4375 C-20.26491375 217.35681202 -22.1695182 216.30552289 -24.07641602 215.25512695 C-31.84079769 210.97180878 -39.44998737 206.44402173 -47.03369141 201.85107422 C-50.90928093 199.51117189 -54.79544102 197.18893519 -58.68017578 194.86425781 C-61.95783608 192.90026486 -65.23104957 190.92901583 -68.50390625 188.95703125 C-71.84887866 186.94368148 -75.20058427 184.94952977 -78.58984375 183.01171875 C-87.80483899 177.64616143 -94.40198206 172.24373871 -97.7370491 161.93157959 C-98.75574366 157.94897637 -98.79337288 154.11348411 -98.76318359 150.02148438 C-98.76844055 149.12754471 -98.77369751 148.23360504 -98.77911377 147.31257629 C-98.79221591 144.38528479 -98.78361054 141.45854612 -98.7734375 138.53125 C-98.77546105 136.48058977 -98.77837482 134.42993024 -98.78213501 132.37927246 C-98.78654512 128.09245924 -98.78016964 123.80583422 -98.76611328 119.51904297 C-98.74902232 114.04169481 -98.75887054 108.56478775 -98.77683067 103.08745575 C-98.787704 98.85622879 -98.78420589 94.62510531 -98.7764473 90.39387512 C-98.7744551 88.3749842 -98.77686987 86.35608369 -98.78388596 84.33720398 C-98.79155902 81.50905696 -98.77981467 78.68161084 -98.76318359 75.85351562 C-98.76925629 75.03039383 -98.77532898 74.20727203 -98.78158569 73.35920715 C-98.69297261 65.16898467 -96.54293233 57.89741541 -91.375 51.4375 C-85.12843329 45.43797265 -77.83541977 41.39979351 -70.375 37.125 C-69.04981633 36.35832653 -67.72511173 35.59082442 -66.40087891 34.82250977 C-63.83537815 33.33432424 -61.26839734 31.84875271 -58.70019531 30.36523438 C-55.02792295 28.23628705 -51.3830165 26.07012472 -47.75 23.875 C-41.24548757 19.95838741 -34.73706391 16.04849247 -28.21514893 12.16091919 C-27.00289812 11.43730409 -25.79156931 10.71214182 -24.58123779 9.98532104 C-7.96476399 0.00983304 -7.96476399 0.00983304 0 0 Z M-26.375 16.4375 C-28.281674 17.57309019 -30.18924392 18.70717733 -32.09765625 19.83984375 C-36.21713384 22.29201023 -40.32056494 24.76896589 -44.41796875 27.2578125 C-48.79392697 29.90599857 -53.19409672 32.50207027 -57.62716675 35.05340576 C-60.52399744 36.72102039 -63.41399743 38.40030967 -66.30407715 40.07958984 C-67.70758756 40.89068186 -69.11434211 41.69619034 -70.52453613 42.49560547 C-83.80137644 49.8931251 -83.80137644 49.8931251 -92.44560242 62.00416565 C-93.6052165 66.28795437 -93.67027444 70.18819442 -93.66552734 74.60473633 C-93.67224457 75.50799149 -93.67896179 76.41124664 -93.68588257 77.34187317 C-93.70482716 80.31781569 -93.70878504 83.29353224 -93.7109375 86.26953125 C-93.71736807 88.34689933 -93.72409663 90.4242665 -93.73110962 92.50163269 C-93.74307368 96.85340473 -93.74679135 101.20509744 -93.74560547 105.55688477 C-93.74540238 111.11845283 -93.77269866 116.67950937 -93.80714989 122.24095631 C-93.82944672 126.53137016 -93.83344214 130.82166146 -93.83238602 135.1121273 C-93.834738 137.16173756 -93.8435387 139.2113514 -93.85905075 141.26090431 C-93.87876612 144.13498828 -93.87285079 147.00797641 -93.86083984 149.88208008 C-93.87207886 150.71926575 -93.88331787 151.55645142 -93.89489746 152.41900635 C-93.82133209 159.38736013 -91.88716137 165.31564116 -87.48583984 170.78515625 C-81.12507171 176.17194614 -74.23672219 180.33712964 -67 184.4375 C-65.7222995 185.17207301 -64.4452934 185.90785502 -63.16894531 186.64477539 C-61.20033725 187.78103908 -59.2312701 188.91642212 -57.2598877 190.04786682 C-51.66288743 193.26030925 -46.10473727 196.53526214 -40.55810547 199.83374023 C-38.28595304 201.18471922 -36.0115657 202.53194709 -33.73486328 203.87524414 C-28.8859564 206.73762147 -24.05704467 209.61696976 -19.296875 212.625 C-11.86025565 217.27915123 -5.50055477 221.10762713 3.625 220.4375 C3.295 219.7775 2.965 219.1175 2.625 218.4375 C1.965 218.4375 1.305 218.4375 0.625 218.4375 C-1.42690785 213.33142365 -1.6715287 208.93790832 -1.66552734 203.52978516 C-1.67224457 202.65418442 -1.67896179 201.77858368 -1.68588257 200.87644958 C-1.70481992 197.99309555 -1.70878451 195.10997479 -1.7109375 192.2265625 C-1.71736801 190.21405951 -1.72409656 188.20155744 -1.73110962 186.1890564 C-1.74307145 181.97432285 -1.74679153 177.7596712 -1.74560547 173.54492188 C-1.74540226 168.15588322 -1.77271171 162.76737177 -1.80714989 157.37845802 C-1.82943381 153.22276416 -1.83344256 149.06719692 -1.83238602 144.91144943 C-1.83473944 142.92520708 -1.84354831 140.93896111 -1.85905075 138.95277786 C-1.87874237 136.16948193 -1.87286047 133.3873198 -1.86083984 130.60400391 C-1.87207886 129.79127518 -1.88331787 128.97854645 -1.89489746 128.14118958 C-1.82539926 121.77859987 -0.19813954 116.44275077 4.23156166 111.72730446 C8.61364579 107.7009558 13.74840118 104.78002844 18.875 101.8125 C20.66647933 100.75709826 22.45681786 99.69975804 24.24609375 98.640625 C25.1469873 98.10759766 26.04788086 97.57457031 26.97607422 97.02539062 C31.00841672 94.60821499 34.97411627 92.09063986 38.9375 89.5625 C48.9144566 83.21544172 59.00144147 77.05570127 69.12744141 70.94970703 C71.28415619 69.6438721 73.43113577 68.3241137 75.57421875 66.99609375 C76.62222656 66.35800781 77.67023438 65.71992187 78.75 65.0625 C80.02230469 64.27746094 80.02230469 64.27746094 81.3203125 63.4765625 C83.97380911 62.2802403 85.74419704 62.15855748 88.625 62.4375 C90.9375 63.4375 90.9375 63.4375 92.625 64.4375 C92.17589729 59.49737016 89.98407036 55.95667351 86.625 52.4375 C82.6396295 49.50958872 78.39688012 47.04295811 74.125 44.5625 C72.87946048 43.82458442 71.6346824 43.08538226 70.390625 42.3449707 C67.13323656 40.41159673 63.86535036 38.49679047 60.59375 36.58758545 C57.40204913 34.72308832 54.21719543 32.84696429 51.03125 30.97265625 C47.3504206 28.80887327 43.66776609 26.64835313 39.97875977 24.49853516 C34.46147763 21.28258552 28.95687048 18.04982224 23.49609375 14.73828125 C22.10680664 13.89583862 22.10680664 13.89583862 20.68945312 13.03637695 C18.99391124 12.00439705 17.3009962 10.96808297 15.61132812 9.92651367 C14.87205078 9.47638916 14.13277344 9.02626465 13.37109375 8.5625 C12.73872803 8.17320313 12.1063623 7.78390625 11.45483398 7.3828125 C9.51582994 6.38110154 7.75628029 5.88091525 5.625 5.4375 C4.861875 5.27765625 4.09875 5.1178125 3.3125 4.953125 C-8.11138202 3.82402038 -17.02909578 10.76766226 -26.375 16.4375 Z " fill="#273037" transform="translate(112.375,0.5625)"/>
<path d="M0 0 C1.55847656 -0.02900391 1.55847656 -0.02900391 3.1484375 -0.05859375 C12.67744992 1.3011642 20.98473417 7.41330007 29.125 12.25 C30.40777611 13.00763394 31.6907381 13.76495323 32.97387695 14.52197266 C36.86243964 16.81901083 40.74467833 19.12657363 44.625 21.4375 C45.50548004 21.96165497 45.50548004 21.96165497 46.40374756 22.49639893 C53.21958327 26.55550126 60.01898208 30.64103676 66.80810547 34.74462891 C69.53089189 36.38094378 72.26522128 37.99593969 75.00390625 39.60546875 C76.62766398 40.57021184 78.25136562 41.53504933 79.875 42.5 C80.59582764 42.91685059 81.31665527 43.33370117 82.05932617 43.76318359 C86.54776298 46.45222894 89.48357201 49.2428413 92.625 53.4375 C86.70492555 53.4375 82.99256937 51.65657386 78.125 48.4375 C70.2331119 43.36011445 62.16736316 38.60071475 54.0625 33.875 C51.52713825 32.39488306 48.99207305 30.91425859 46.45703125 29.43359375 C45.85240051 29.08058197 45.24776978 28.72757019 44.62481689 28.36386108 C40.14977552 25.74931093 35.69015971 23.11080777 31.25 20.4375 C30.15300781 19.7775 29.05601562 19.1175 27.92578125 18.4375 C25.46073593 16.94388674 23.00061449 15.44318817 20.54296875 13.9375 C19.51405518 13.31101562 19.51405518 13.31101562 18.46435547 12.671875 C17.15465935 11.87425713 15.84749764 11.072456 14.54345703 10.265625 C11.61140335 8.48363366 9.03286628 6.97372741 5.625 6.4375 C4.4803125 6.19773437 4.4803125 6.19773437 3.3125 5.953125 C-8.11138202 4.82402038 -17.02909578 11.76766226 -26.375 17.4375 C-28.281674 18.57309019 -30.18924392 19.70717733 -32.09765625 20.83984375 C-36.21552268 23.29118779 -40.31781983 25.76662299 -44.4140625 28.25390625 C-48.80148439 30.90877687 -53.21204206 33.51487787 -57.6529541 36.07919312 C-60.55899513 37.75740215 -63.45894177 39.44601551 -66.35900879 41.13452148 C-67.76968519 41.95185962 -69.18328924 42.76416863 -70.59997559 43.57104492 C-83.24047818 50.52435296 -83.24047818 50.52435296 -91.43206787 61.9906311 C-92.60597399 66.28182066 -92.6702854 70.17799695 -92.66552734 74.60473633 C-92.67224457 75.50799149 -92.67896179 76.41124664 -92.68588257 77.34187317 C-92.70482716 80.31781569 -92.70878504 83.29353224 -92.7109375 86.26953125 C-92.71736807 88.34689933 -92.72409663 90.4242665 -92.73110962 92.50163269 C-92.74307368 96.85340473 -92.74679135 101.20509744 -92.74560547 105.55688477 C-92.74540238 111.11845283 -92.77269866 116.67950937 -92.80714989 122.24095631 C-92.82944672 126.53137016 -92.83344214 130.82166146 -92.83238602 135.1121273 C-92.834738 137.16173756 -92.8435387 139.2113514 -92.85905075 141.26090431 C-92.87876612 144.13498828 -92.87285079 147.00797641 -92.86083984 149.88208008 C-92.87207886 150.71926575 -92.88331787 151.55645142 -92.89489746 152.41900635 C-92.82278733 159.24951542 -90.95596526 165.14903909 -86.70239258 170.56860352 C-80.60431831 175.58337183 -73.90224145 179.47850734 -67.0625 183.375 C-65.78984887 184.10915471 -64.51780435 184.84436189 -63.24633789 185.58056641 C-60.61713321 187.10248081 -57.98597096 188.62092309 -55.35351562 190.13720703 C-49.57391948 193.472284 -43.82721684 196.86286418 -38.08584595 200.26321411 C-36.34410439 201.29379974 -34.60027317 202.32077663 -32.85620117 203.34741211 C-31.79892822 203.97268799 -30.74165527 204.59796387 -29.65234375 205.2421875 C-28.72671631 205.78858887 -27.80108887 206.33499023 -26.84741211 206.89794922 C-24.58658699 208.30574651 -22.47526658 209.80235604 -20.375 211.4375 C-20.705 212.4275 -21.035 213.4175 -21.375 214.4375 C-27.9221204 213.15185661 -32.69458478 210.78777908 -38.3125 207.25 C-40.07258823 206.16743458 -41.83302191 205.08543066 -43.59375 204.00390625 C-44.52445313 203.42785645 -45.45515625 202.85180664 -46.4140625 202.25830078 C-50.60410476 199.68167354 -54.82636817 197.16016201 -59.04931641 194.63793945 C-62.26393517 192.71652771 -65.47222586 190.78489214 -68.6796875 188.8515625 C-71.95953721 186.87721107 -75.24700335 184.92365879 -78.5703125 183.0234375 C-87.79214562 177.65295 -94.39893766 172.2531521 -97.7370491 161.93157959 C-98.75574366 157.94897637 -98.79337288 154.11348411 -98.76318359 150.02148438 C-98.76844055 149.12754471 -98.77369751 148.23360504 -98.77911377 147.31257629 C-98.79221591 144.38528479 -98.78361054 141.45854612 -98.7734375 138.53125 C-98.77546105 136.48058977 -98.77837482 134.42993024 -98.78213501 132.37927246 C-98.78654512 128.09245924 -98.78016964 123.80583422 -98.76611328 119.51904297 C-98.74902232 114.04169481 -98.75887054 108.56478775 -98.77683067 103.08745575 C-98.787704 98.85622879 -98.78420589 94.62510531 -98.7764473 90.39387512 C-98.7744551 88.3749842 -98.77686987 86.35608369 -98.78388596 84.33720398 C-98.79155902 81.50905696 -98.77981467 78.68161084 -98.76318359 75.85351562 C-98.76925629 75.03039383 -98.77532898 74.20727203 -98.78158569 73.35920715 C-98.69297261 65.16898467 -96.54293233 57.89741541 -91.375 51.4375 C-85.12843329 45.43797265 -77.83541977 41.39979351 -70.375 37.125 C-69.04981633 36.35832653 -67.72511173 35.59082442 -66.40087891 34.82250977 C-63.83537815 33.33432424 -61.26839734 31.84875271 -58.70019531 30.36523438 C-55.02792295 28.23628705 -51.3830165 26.07012472 -47.75 23.875 C-41.24548757 19.95838741 -34.73706391 16.04849247 -28.21514893 12.16091919 C-27.00289812 11.43730409 -25.79156931 10.71214182 -24.58123779 9.98532104 C-7.96476399 0.00983304 -7.96476399 0.00983304 0 0 Z " fill="#272F37" transform="translate(112.375,0.5625)"/>
<path d="M0 0 C0 2.31 0 4.62 0 7 C3.465 6.505 3.465 6.505 7 6 C8 9 8 9 7.625 11.5 C5.38040774 14.95321887 2.9748381 15.15540093 -0.86328125 16.26171875 C-3.16390459 16.90496534 -3.16390459 16.90496534 -5.125 18.875 C-6.25285889 21.61408588 -5.85245181 23.21015772 -5 26 C-4.11248047 26.02126953 -4.11248047 26.02126953 -3.20703125 26.04296875 C0.93222228 26.2928095 3.50301949 26.68558376 7.0625 28.9375 C9.84579832 33.33690702 9.8411983 36.92965795 9 42 C7.64125566 46.03484993 5.963481 49.11910309 2.8125 52 C0.03730366 55.06228562 0.2709719 57.93542149 0 62 C-1.65 62.66 -3.3 63.32 -5 64 C-5 62.02 -5 60.04 -5 58 C-7.64 58.33 -10.28 58.66 -13 59 C-13.74745486 56.3091625 -14.1930237 54.5812278 -13.30078125 51.89453125 C-12 50 -12 50 -9.94140625 49.27734375 C-9.15636719 49.16519531 -8.37132812 49.05304688 -7.5625 48.9375 C-4.04190851 48.42130125 -2.18414475 47.90314893 0 45 C0.73041853 41.38976901 0.73041853 41.38976901 1 38 C0.16855469 37.82984375 -0.66289062 37.6596875 -1.51953125 37.484375 C-2.60621094 37.24203125 -3.69289062 36.9996875 -4.8125 36.75 C-5.89144531 36.51796875 -6.97039062 36.2859375 -8.08203125 36.046875 C-11.3614945 34.8703072 -12.36227748 34.02950718 -14 31 C-14.947903 24.12770328 -13.00074048 18.66420626 -9 13 C-6.828125 11.7109375 -6.828125 11.7109375 -5 11 C-5.0825 9.741875 -5.165 8.48375 -5.25 7.1875 C-5.27075053 3.27948441 -5.27075053 3.27948441 -3.0625 1 C-1 0 -1 0 0 0 Z " fill="#F5F6F6" transform="translate(142,124)"/>
<path d="M0 0 C0.66 0 1.32 0 2 0 C2.51953125 2.6328125 2.51953125 2.6328125 2 6 C-0.46679032 8.43639386 -3.34418019 10.10888571 -6.3125 11.875 C-7.09818359 12.37257812 -7.88386719 12.87015625 -8.69335938 13.3828125 C-14.53153975 17 -14.53153975 17 -18 17 C-18.52734375 14.33203125 -18.52734375 14.33203125 -18 11 C-15.47307041 8.73115978 -12.55903395 7.25642865 -9.5625 5.6875 C-7.98019039 4.81691198 -6.39814498 3.94584355 -4.81640625 3.07421875 C-4.10943604 2.69869873 -3.40246582 2.32317871 -2.67407227 1.9362793 C-1.02033662 1.11099862 -1.02033662 1.11099862 0 0 Z " fill="#4BA126" transform="translate(178,163)"/>
<path d="M0 0 C1.69921875 1.58984375 1.69921875 1.58984375 3 3 C2.33613281 3.04898437 1.67226562 3.09796875 0.98828125 3.1484375 C-5.7112236 3.71125812 -5.7112236 3.71125812 -12 6 C-12.33 5.01 -12.66 4.02 -13 3 C-13.66 2.67 -14.32 2.34 -15 2 C-9.50813656 -1.45202845 -6.28956406 -2.83647007 0 0 Z " fill="#2E363D" transform="translate(113,3)"/>
<path d="M0 0 C1.79133978 -0.05391993 3.58313899 -0.09275571 5.375 -0.125 C6.37273437 -0.14820312 7.37046875 -0.17140625 8.3984375 -0.1953125 C11 0 11 0 13 2 C12.01 3.485 12.01 3.485 11 5 C8.03 4.67 5.06 4.34 2 4 C2.66 3.34 3.32 2.68 4 2 C2.68 1.34 1.36 0.68 0 0 Z " fill="#1E272E" transform="translate(108,1)"/>
<path d="M0 0 C3.1875 0.875 3.1875 0.875 6 2 C5.34 3.32 4.68 4.64 4 6 C1.97954558 5.39816251 -0.02111039 4.72693904 -2 4 C-2.33 3.34 -2.66 2.68 -3 2 C-2.01 1.34 -1.02 0.68 0 0 Z " fill="#1F272F" transform="translate(99,217)"/>
<path d="M0 0 C2.4375 0.6875 2.4375 0.6875 5 2 C5.8125 4.625 5.8125 4.625 6 7 C5.01 7.33 4.02 7.66 3 8 C0.9375 5.6875 0.9375 5.6875 -1 3 C-0.67 2.01 -0.34 1.02 0 0 Z " fill="#2C353C" transform="translate(164,27)"/>
<path d="M0 0 C1.5 1.1875 1.5 1.1875 3 3 C3.1875 5.6875 3.1875 5.6875 3 8 C2.01 8 1.02 8 0 8 C-1.125 6.25 -1.125 6.25 -2 4 C-1.125 1.75 -1.125 1.75 0 0 Z " fill="#212931" transform="translate(20,165)"/>
<path d="M0 0 C0.598125 0.474375 1.19625 0.94875 1.8125 1.4375 C4.00382924 3.16465744 4.00382924 3.16465744 7 4 C8.1875 6.5625 8.1875 6.5625 9 9 C8.34 9 7.68 9 7 9 C6.34 8.01 5.68 7.02 5 6 C2.43717258 5.27034634 2.43717258 5.27034634 0 5 C0 3.35 0 1.7 0 0 Z " fill="#303940" transform="translate(200,51)"/>
<path d="M0 0 C3 2 3 2 3.6875 5.125 C3.8421875 6.548125 3.8421875 6.548125 4 8 C2.68 7.34 1.36 6.68 0 6 C0 4.02 0 2.04 0 0 Z " fill="#2C343A" transform="translate(70,199)"/>
<path d="M0 0 C3.36720387 1.39332574 4.9859524 2.9789286 7 6 C6.01 6 5.02 6 4 6 C3.67 5.01 3.34 4.02 3 3 C2.01 3 1.02 3 0 3 C0 2.01 0 1.02 0 0 Z " fill="#1B232B" transform="translate(198,48)"/>
<path d="M0 0 C1.485 0.99 1.485 0.99 3 2 C2.67 3.32 2.34 4.64 2 6 C1.01 6 0.02 6 -1 6 C-0.67 4.02 -0.34 2.04 0 0 Z " fill="#2F373E" transform="translate(25,48)"/>
<path d="M0 0 C0.33 0.99 0.66 1.98 1 3 C1.66 3.33 2.32 3.66 3 4 C1.02 4.99 1.02 4.99 -1 6 C-1 5.01 -1 4.02 -1 3 C-1.66 2.67 -2.32 2.34 -3 2 C-2.01 1.34 -1.02 0.68 0 0 Z " fill="#212830" transform="translate(74,19)"/>
</svg>
