<?xml version="1.0" encoding="UTF-8"?>
<svg version="1.1" xmlns="http://www.w3.org/2000/svg" width="262" height="192">
<path d="M0 0 C86.46 0 172.92 0 262 0 C262 63.36 262 126.72 262 192 C175.54 192 89.08 192 0 192 C0 128.64 0 65.28 0 0 Z " fill="#0865FD" transform="translate(0,0)"/>
<path d="M0 0 C8.13019363 5.84626998 13.02015219 13.66623279 15.3125 23.375 C16.81720849 33.14140984 13.91655211 42.27725328 8.2578125 50.28125 C1.05502553 58.75511702 -4.66354761 60.9252328 -15.6875 63.375 C-15.6875 55.455 -15.6875 47.535 -15.6875 39.375 C-12.3875 39.375 -9.0875 39.375 -5.6875 39.375 C-5.1925 34.425 -5.1925 34.425 -4.6875 29.375 C-8.3175 29.375 -11.9475 29.375 -15.6875 29.375 C-16.1675 22.175 -16.1675 22.175 -14.1875 18.875 C-10.54741277 16.69094766 -7.89095267 17.09476982 -3.6875 17.375 C-3.6875 14.075 -3.6875 10.775 -3.6875 7.375 C-5.89654631 7.46275663 -8.10478593 7.57094367 -10.3125 7.6875 C-12.15714844 7.77451172 -12.15714844 7.77451172 -14.0390625 7.86328125 C-17.87448416 8.40122583 -20.39048687 9.37445595 -23.6875 11.375 C-27.61226039 16.65312604 -27.38975791 23.03001343 -27.6875 29.375 C-29.9975 29.375 -32.3075 29.375 -34.6875 29.375 C-34.6875 32.675 -34.6875 35.975 -34.6875 39.375 C-32.3775 39.375 -30.0675 39.375 -27.6875 39.375 C-27.6875 46.965 -27.6875 54.555 -27.6875 62.375 C-36.32433607 60.64763279 -42.87274985 56.35243219 -48.23828125 49.3515625 C-54.16709184 40.22224355 -54.74290456 30.9818158 -53.6875 20.375 C-52.853889 16.94582748 -51.61410009 14.31591603 -49.6875 11.375 C-49.26339844 10.68148437 -48.83929688 9.98796875 -48.40234375 9.2734375 C-37.33360174 -7.19093083 -16.45984493 -10.00936516 0 0 Z " fill="#F7FAFC" transform="translate(150.6875,67.625)"/>
<path d="M0 0 C0.66 0.33 1.32 0.66 2 1 C1.67 1.33 1.34 1.66 1 2 C1.66 2.66 2.32 3.32 3 4 C2.34 4 1.68 4 1 4 C0.34 5.32 -0.32 6.64 -1 8 C-4 8 -4 8 -6 7 C-4.02 4.69 -2.04 2.38 0 0 Z " fill="#E6F0F8" transform="translate(108,70)"/>
<path d="M0 0 C0 0.99 0 1.98 0 3 C-2.89234315 3.82638376 -4.88742431 4 -8 4 C-8.66 3.34 -9.32 2.68 -10 2 C-3.375 -1.125 -3.375 -1.125 0 0 Z " fill="#196CF1" transform="translate(151,127)"/>
</svg>
