<?xml version="1.0" encoding="UTF-8"?>
<svg version="1.1" xmlns="http://www.w3.org/2000/svg" width="1200" height="600">
<path d="M0 0 C396 0 792 0 1200 0 C1200 198 1200 396 1200 600 C804 600 408 600 0 600 C0 402 0 204 0 0 Z " fill="#FEFEFE" transform="translate(0,0)"/>
<path d="M0 0 C0.45816485 14.6273371 -0.12001099 26.22394752 -10.45166016 37.59814453 C-14.86130976 42.18544908 -19.66963585 45.86365389 -24.875 49.5 C-26.47337863 50.637006 -28.07104391 51.77501555 -29.66796875 52.9140625 C-30.42126465 53.4493457 -31.17456055 53.98462891 -31.95068359 54.53613281 C-53.76748959 70.12030827 -58.53405356 87.7148966 -64.0625 112.9375 C-64.90437595 116.73899037 -65.75032302 120.53956636 -66.59765625 124.33984375 C-66.90478043 125.7192363 -66.90478043 125.7192363 -67.21810913 127.12649536 C-88.43423132 221.92824058 -88.43423132 221.92824058 -124 245 C-126.6875 245.25 -126.6875 245.25 -129 245 C-130.56876403 243.43123597 -130.30988342 241.7386559 -130.5 239.5625 C-130.5825 238.66789063 -130.665 237.77328125 -130.75 236.8515625 C-130.91666667 234.95052083 -131.08333333 233.04947917 -131.25 231.1484375 C-131.3325 230.25382813 -131.415 229.35921875 -131.5 228.4375 C-131.5721875 227.61121094 -131.644375 226.78492188 -131.71875 225.93359375 C-131.80365276 223.99702642 -131.80365276 223.99702642 -133 223 C-133.26103516 223.648479 -133.52207031 224.29695801 -133.79101562 224.96508789 C-148.17578669 260.53338675 -165.32536439 289.49782425 -202.08496094 305.21337891 C-212.87693515 309.64628825 -212.87693515 309.64628825 -218 308 C-218.34718824 303.7894192 -217.62693844 301.9395803 -215.0625 298.625 C-198.97002724 276.64820892 -186.87318035 249.73228357 -188 222 C-190.40476539 221.93569761 -190.40476539 221.93569761 -193 223 C-194.42147682 225.44076473 -195.43669968 227.57965397 -196.4375 230.1875 C-196.73116455 230.90204346 -197.0248291 231.61658691 -197.32739258 232.3527832 C-198.23432452 234.56237702 -199.1173757 236.78060468 -200 239 C-201.04692126 241.56949293 -202.11413512 244.1287716 -203.1875 246.6875 C-203.63480469 247.78449219 -204.08210938 248.88148438 -204.54296875 250.01171875 C-206.80921032 254.65964047 -209.11894951 258.06881109 -214 260 C-218.21517096 260.44058974 -222.45175533 260.33120461 -226.6875 260.3125 C-227.93031738 260.30976074 -229.17313477 260.30702148 -230.45361328 260.30419922 C-242.77638167 260.16813108 -254.82302041 258.79926119 -267 257 C-267.72912598 256.89365234 -268.45825195 256.78730469 -269.20947266 256.67773438 C-271.03561847 256.41109078 -272.86156763 256.14310131 -274.6875 255.875 C-295.91951485 252.76196993 -322.45553702 250.31484903 -343 258 C-343.98226562 258.33902344 -344.96453125 258.67804688 -345.9765625 259.02734375 C-358.60181193 263.80860398 -370.38241553 271.17403506 -381.625 278.5625 C-393.75832877 286.51894003 -406.14221802 293.19955025 -419.3125 299.3125 C-420.39781006 299.81644287 -421.48312012 300.32038574 -422.60131836 300.83959961 C-438.47032362 308.08690953 -451.65762273 311.38729875 -469 311 C-468.52480996 305.81185957 -466.84413461 302.81952292 -463.8125 298.625 C-463.40974854 298.05918213 -463.00699707 297.49336426 -462.59204102 296.91040039 C-459.84632259 293.07449438 -456.99116275 289.3280002 -453.99609375 285.68359375 C-452.66053322 283.75226674 -452.66053322 283.75226674 -453 280 C-454.9951204 278.30642027 -454.9951204 278.30642027 -457.6875 276.875 C-463.57141943 273.35685881 -468.87006111 269.35983356 -474.25 265.13671875 C-476.99158201 262.95326167 -476.99158201 262.95326167 -480 261 C-478.60768223 256.8230467 -476.40061819 256.03572885 -472.61279297 254.04736328 C-468.25520178 252.30058079 -464.20605191 252.30425837 -459.5625 252.4375 C-458.57386963 252.44974609 -457.58523926 252.46199219 -456.56665039 252.47460938 C-447.79474697 252.71063087 -439.30240472 254.07986694 -430.66918945 255.56054688 C-423.33280801 256.7725345 -416.18704753 257.41242778 -408.75 257.4375 C-407.85144287 257.44716797 -406.95288574 257.45683594 -406.02709961 257.46679688 C-399.44938146 257.38090444 -394.48907059 255.93889802 -389.75 251.125 C-383.81678157 244.91733755 -378.76695944 237.83154349 -373.74609375 230.87890625 C-356.81524313 207.58762874 -334.51860916 193.61707816 -307.6875 184.4375 C-305.73175611 183.75448426 -303.77627718 183.07070946 -301.82104492 182.38623047 C-285.83876627 176.82814314 -269.72006289 171.70314814 -253.58630371 166.60568237 C-237.81921571 161.62033593 -222.22371446 156.4957711 -207 150 C-206.20062012 149.66097656 -205.40124023 149.32195312 -204.57763672 148.97265625 C-169.10988746 133.70109762 -150.06212366 108.48673236 -131.13085938 75.82006836 C-115.59858672 49.02946111 -98.69571693 20.74052146 -66.78515625 12.1328125 C-59.26819264 10.41884686 -52.11956002 9.7928724 -44.4375 9.5625 C-32.32848257 9.17307626 -22.24301259 6.42020223 -11.3046875 1.05078125 C-7.07282951 -0.87865909 -4.55623391 -1.13905848 0 0 Z " fill="#FDFDFE" transform="translate(839,47)"/>
<path d="M0 0 C3.27044817 2.63452769 5.00183137 5.29218765 5.68359375 9.46875 C5.7053177 25.28378281 -0.23663696 37.58088804 -11.125 48.6875 C-16.70473855 54.22600157 -22.70276614 58.93602955 -29.05029297 63.55419922 C-48.38052032 77.70322599 -55.22221814 94.02156803 -59.75 116.9375 C-60.26810653 119.49481652 -60.78633579 122.05210817 -61.3046875 124.609375 C-61.78652645 127.010403 -62.26830242 129.41144364 -62.75 131.8125 C-64.76477083 141.77056271 -66.85887967 151.64764822 -69.56640625 161.4453125 C-70.51891064 164.90760356 -71.40415708 168.38406564 -72.27734375 171.8671875 C-72.85084805 174.14080533 -73.42509298 176.41423645 -74 178.6875 C-74.29245605 179.84854248 -74.58491211 181.00958496 -74.88623047 182.20581055 C-76.66312844 189.09947263 -78.72906936 195.79352833 -81.09741211 202.50512695 C-87.97176752 222.17979386 -88.17706648 242.04076723 -80.00390625 261.49609375 C-78.12327371 264.97028407 -75.67033734 267.86853538 -73.04296875 270.8046875 C-71.75 272.8125 -71.75 272.8125 -71.8359375 274.9375 C-73.58438268 278.52405422 -77.17411772 279.47228541 -80.75 280.8125 C-93.23423738 284.65048662 -107.63529611 284.12792652 -119.47265625 278.5234375 C-124.5195682 275.67646153 -128.39067062 272.50464431 -132.08203125 268.03515625 C-133.73396673 266.54898128 -133.73396673 266.54898128 -136.18359375 266.9765625 C-147.96643388 270.81450434 -154.11000401 281.48599286 -160.3125 291.5 C-174.13742119 313.50572319 -199.21333689 320.0239942 -223.25 325.6875 C-229.4528652 326.94722678 -235.44109486 327.12447883 -241.75 326.8125 C-241.75 323.26817997 -241.10983731 322.56075122 -239.0625 319.75 C-238.42957031 318.86699219 -237.79664063 317.98398437 -237.14453125 317.07421875 C-235.32656549 314.58410384 -233.48203659 312.11441821 -231.63671875 309.64453125 C-220.49034131 294.87843193 -220.49034131 294.87843193 -213.75 277.8125 C-214.40895264 277.73209473 -215.06790527 277.65168945 -215.74682617 277.56884766 C-241.68796583 274.39330607 -241.68796583 274.39330607 -253.45532227 272.34057617 C-285.89582737 266.71732889 -326.99549694 261.35628177 -357.75 275.8125 C-358.69875 276.24691406 -359.6475 276.68132812 -360.625 277.12890625 C-368.15269806 280.88295359 -374.79267386 285.62480911 -381.625 290.5 C-398.4515898 302.43433806 -416.16815772 311.37993002 -435.75 317.8125 C-436.94109375 318.22113281 -438.1321875 318.62976563 -439.359375 319.05078125 C-450.51729079 322.72114829 -467.40091435 327.59407768 -478.61328125 322.515625 C-480.75 320.8125 -480.75 320.8125 -481.4375 317.25 C-480.80531918 308.11665083 -472.93051232 300.22516925 -467.5078125 293.28125 C-465.55666057 291.04606813 -465.55666057 291.04606813 -465.75 288.8125 C-467.43548895 287.53373357 -467.43548895 287.53373357 -469.625 286.25 C-474.31692806 283.2379894 -478.31687806 279.75511357 -482.390625 275.9609375 C-484.75592404 273.75141924 -484.75592404 273.75141924 -487.4765625 271.69140625 C-489.75 269.8125 -489.75 269.8125 -490.875 267.375 C-490.75 264.8125 -490.75 264.8125 -488.8125 262.25 C-476.6649957 252.58157821 -460.90146585 253.447718 -446.08935547 255.11132812 C-443.75875392 255.47272037 -441.44261486 255.87583697 -439.125 256.3125 C-431.91769186 257.65162694 -424.8949993 258.17538083 -417.5625 258.25 C-416.60585449 258.27191406 -415.64920898 258.29382813 -414.66357422 258.31640625 C-407.04600281 258.29491425 -401.87435168 256.60125566 -396.16796875 251.5078125 C-395.06388672 250.23550781 -395.06388672 250.23550781 -393.9375 248.9375 C-392.67679688 247.48923828 -392.67679688 247.48923828 -391.390625 246.01171875 C-388.09523786 242.06488923 -384.94036134 238.00835328 -381.78808594 233.94702148 C-354.0293205 198.28730709 -315.54208063 186.683498 -274.03540039 173.87084961 C-272.69025339 173.45561025 -271.34511981 173.04032743 -270 172.625 C-269.33918427 172.42101593 -268.67836853 172.21703186 -267.99752808 172.00686646 C-239.03379846 163.04310112 -204.79747757 152.34896834 -181.75 131.8125 C-180.90566406 131.14863281 -180.06132813 130.48476562 -179.19140625 129.80078125 C-165.95480498 119.02089317 -156.81385758 102.53964873 -148.12353516 88.11230469 C-128.70947934 55.88530099 -128.70947934 55.88530099 -116.75 41.8125 C-116.06679688 40.99523437 -115.38359375 40.17796875 -114.6796875 39.3359375 C-104.68589456 27.76606252 -93.78673064 19.66614455 -79.75 13.8125 C-79.08540771 13.53132324 -78.42081543 13.25014648 -77.73608398 12.96044922 C-71.01512808 10.40662486 -64.31314735 10.16396353 -57.1875 9.8125 C-42.41125722 8.8902392 -29.14713625 7.46143161 -15.59301758 1.1496582 C-10.28030091 -1.26744982 -5.61313686 -2.42385455 0 0 Z M-14.875 8 C-16.01195312 8.46277344 -17.14890625 8.92554688 -18.3203125 9.40234375 C-19.45210937 9.86769531 -20.58390625 10.33304688 -21.75 10.8125 C-23.7452337 11.57508932 -25.7449108 12.32621386 -27.75 13.0625 C-28.595625 13.37703125 -29.44125 13.6915625 -30.3125 14.015625 C-35.20406524 15.61479056 -39.78240229 15.94662991 -44.89428711 16.10229492 C-70.57257889 16.90352191 -90.62202377 24.33556926 -108.51171875 43.18359375 C-120.54905479 56.37788526 -128.93313439 72.41443121 -137.82878113 87.78315735 C-167.4608055 138.92926011 -205.34703389 156.41196991 -260.05078125 174.27587891 C-272.91434702 178.47781255 -285.7511441 182.76055411 -298.57519531 187.0814209 C-300.7482295 187.81190483 -302.92278617 188.53769782 -305.09765625 189.26269531 C-327.00922176 196.28429707 -327.00922176 196.28429707 -346.75 207.8125 C-347.40452148 208.30508301 -348.05904297 208.79766602 -348.73339844 209.30517578 C-353.54804383 212.980452 -358.1900785 216.82671523 -362.75 220.8125 C-364.12285156 222.01132812 -364.12285156 222.01132812 -365.5234375 223.234375 C-371.51430686 228.85687375 -376.07111911 235.28508439 -380.77612305 241.97143555 C-384.34920782 247.00477407 -388.08143689 251.75839373 -392.25 256.3125 C-392.73001465 256.84593018 -393.2100293 257.37936035 -393.70458984 257.92895508 C-397.88297245 262.37243366 -401.15489945 263.82308216 -407.13671875 264.1484375 C-408.9034435 264.17817863 -410.67052673 264.19001147 -412.4375 264.1875 C-413.87814819 264.18943359 -413.87814819 264.18943359 -415.34790039 264.19140625 C-422.94069274 264.08418235 -430.21413019 263.09949036 -437.6875 261.8125 C-459.43739431 257.63146626 -459.43739431 257.63146626 -480.1875 262.8125 C-482.28899171 264.37690562 -482.28899171 264.37690562 -483.75 265.8125 C-482.39457755 269.87876736 -480.33460052 270.53177172 -476.75 272.8125 C-475.67870116 273.61163457 -474.61746331 274.42442364 -473.56640625 275.25 C-473.03080078 275.67023438 -472.49519531 276.09046875 -471.94335938 276.5234375 C-470.85852232 277.38091349 -469.77517897 278.24028272 -468.69335938 279.1015625 C-464.88883532 282.07941326 -460.99175923 284.49588813 -456.75 286.8125 C-457.30104559 290.64967426 -458.3025304 293.00517441 -460.62109375 296.09765625 C-461.19537109 296.87560547 -461.76964844 297.65355469 -462.36132812 298.45507812 C-463.2652832 299.65293945 -463.2652832 299.65293945 -464.1875 300.875 C-465.37627245 302.46813424 -466.56256561 304.06312219 -467.74609375 305.66015625 C-468.27388428 306.36148682 -468.8016748 307.06281738 -469.34545898 307.78540039 C-471.88081228 311.44454143 -472.75 313.24062285 -472.75 317.8125 C-454.24200663 318.69852096 -439.77633165 313.89089478 -423.24951172 305.99169922 C-420.88059959 304.87411321 -418.49600911 303.80653083 -416.09765625 302.75390625 C-403.52488305 297.1553125 -392.13584256 289.99289813 -380.55615234 282.59130859 C-359.50912911 269.2496859 -340.7051969 260.36908043 -315.375 260.5625 C-314.31037537 260.56665421 -314.31037537 260.56665421 -313.22424316 260.57089233 C-302.5661522 260.61955053 -292.07860309 261.13633684 -281.50146484 262.47851562 C-278.16730694 262.88322973 -274.82901082 263.231864 -271.48828125 263.578125 C-270.21952148 263.70985107 -268.95076172 263.84157715 -267.64355469 263.97729492 C-266.37930664 264.1085376 -265.11505859 264.23978027 -263.8125 264.375 C-261.42808028 264.62339021 -259.04394245 264.8745081 -256.66015625 265.12890625 C-255.64058838 265.23662354 -254.62102051 265.34434082 -253.57055664 265.45532227 C-250.75 265.8125 -250.75 265.8125 -248.28076172 266.34033203 C-242.8720899 267.34943596 -237.29777632 267.08312766 -231.8125 267.125 C-229.91854492 267.16850586 -229.91854492 267.16850586 -227.98632812 267.21289062 C-220.76530659 267.47932886 -220.76530659 267.47932886 -214.08984375 265.1875 C-211.3931178 262.45025563 -209.88659845 259.97777171 -208.25 256.5 C-207.96157227 255.89551025 -207.67314453 255.29102051 -207.37597656 254.66821289 C-204.68227004 248.92011461 -202.36310048 243.02169986 -200.109375 237.08984375 C-198.85576627 234.06749397 -197.73734744 231.41474454 -195.75 228.8125 C-194.43 228.8125 -193.11 228.8125 -191.75 228.8125 C-190.3814535 257.09579442 -203.06690506 286.128251 -220.46484375 307.96484375 C-222.12377193 310.34986816 -221.98676948 311.97126629 -221.75 314.8125 C-215.6719576 317.18368691 -208.45981104 313.16958419 -202.75 310.8125 C-192.35849413 306.15223602 -183.13893848 300.57856311 -174.75 292.8125 C-173.92371094 292.07773437 -173.09742188 291.34296875 -172.24609375 290.5859375 C-154.70409061 274.1694776 -145.35119394 251.72692465 -136.75 229.8125 C-135.18123597 231.38126403 -135.44011658 233.0738441 -135.25 235.25 C-135.1675 236.14460937 -135.085 237.03921875 -135 237.9609375 C-134.83333333 239.86197917 -134.66666667 241.76302083 -134.5 243.6640625 C-134.4175 244.55867187 -134.335 245.45328125 -134.25 246.375 C-134.1778125 247.20128906 -134.105625 248.02757812 -134.03125 248.87890625 C-133.94634724 250.81547358 -133.94634724 250.81547358 -132.75 251.8125 C-130.45221124 252.30543433 -130.45221124 252.30543433 -127.75 251.8125 C-125.6196998 250.24750292 -123.86788572 248.77075023 -122 246.9375 C-121.47631836 246.43718262 -120.95263672 245.93686523 -120.41308594 245.42138672 C-118.84066713 243.90221333 -117.29194723 242.36254145 -115.75 240.8125 C-114.5125 239.575 -114.5125 239.575 -113.25 238.3125 C-91.62901043 215.49034434 -82.73758715 182.19635474 -75.41210938 152.48657227 C-74.97905204 150.73757632 -74.53796315 148.99054448 -74.08789062 147.24584961 C-72.40489009 140.68320233 -70.90571972 134.08753335 -69.4453125 127.47265625 C-69.0221805 125.5657452 -68.59900263 123.65884434 -68.17578125 121.75195312 C-67.5238355 118.81329907 -66.87481556 115.87415228 -66.23486328 112.93286133 C-59.66447226 82.79213654 -59.66447226 82.79213654 -51.6875 74.5625 C-51.21634766 74.07491211 -50.74519531 73.58732422 -50.25976562 73.08496094 C-45.23944675 68.03487733 -39.5781629 63.88150612 -33.75 59.8125 C-14.87759426 46.64713078 -14.87759426 46.64713078 -4.20703125 26.8515625 C-3.21068922 20.22631382 -3.54081431 13.49094681 -3.75 6.8125 C-8.19135941 5.47681442 -10.65111104 6.230533 -14.875 8 Z " fill="#495062" transform="translate(842.75,40.1875)"/>
<path d="M0 0 C52.9812365 0 52.9812365 0 67.171875 12.93359375 C73.55593592 20.14976517 75.37987012 28.41684829 75.27734375 37.76953125 C74.36900643 48.34974202 68.99526712 56.67910183 61.125 63.5 C60.09036153 64.34204343 59.05130638 65.17886129 58 66 C58.90621094 66.40089844 59.81242188 66.80179687 60.74609375 67.21484375 C71.53125188 72.16774189 80.53785031 78.18575943 85.1875 89.6484375 C87.79933268 100.42224731 87.50305815 113.21137444 82 123 C76.21236894 132.18694854 68.31643709 138.5454853 58 142 C39.11583296 146.19648156 19.34482417 144 0 144 C0 96.48 0 48.96 0 0 Z " fill="#495062" transform="translate(881,397)"/>
<path d="M0 0 C59.17535828 0 59.17535828 0 76.50390625 15.4140625 C89.33575698 29.01649435 93.68870721 44.93203519 93.31640625 63.12890625 C92.58207017 78.76504138 86.30958426 92.30077425 75 103 C54.25779242 120.08181801 25.18368767 116 0 116 C0 77.72 0 39.44 0 0 Z " fill="#FEFEFE" transform="translate(759,412)"/>
<path d="M0 0 C3 1 3 1 4.63867188 3.7890625 C5.25850315 5.06298406 5.86762907 6.34214359 6.46875 7.625 C7.1829945 9.10055064 7.8978751 10.57579348 8.61328125 12.05078125 C8.99758301 12.85080566 9.38188477 13.65083008 9.77783203 14.47509766 C11.94096913 18.94396778 14.1790585 23.3753093 16.40625 27.8125 C17.39689584 29.79296643 18.38720259 31.77360251 19.37719727 33.75439453 C19.88646759 34.77293518 20.39573792 35.79147583 20.92044067 36.84088135 C33.94696045 62.8939209 46.97348022 88.94696045 60 115 C61.99296846 112.44759751 63.64872892 109.95164167 65.09375 107.05541992 C65.47889267 106.28817093 65.86403534 105.52092194 66.260849 104.73042297 C66.66976883 103.90543808 67.07868866 103.08045319 67.5 102.23046875 C67.93184097 101.36669113 68.36368195 100.50291351 68.80860901 99.61296082 C70.20995236 96.8065521 71.6051769 93.99715433 73 91.1875 C73.96853381 89.24358517 74.93720288 87.29973773 75.90600586 85.35595703 C80.93818949 75.24531902 85.9145461 65.11317646 90.73046875 54.89746094 C97.88783472 39.80059545 105.50040653 24.91786739 112.99804688 9.98803711 C114.66907608 6.66054245 116.33598003 3.33100669 118 0 C118.99 0 119.98 0 121 0 C123.20512969 13.94143877 125.29953445 27.89519169 127.21875 41.87890625 C127.35843704 42.89586138 127.35843704 42.89586138 127.50094604 43.93336105 C128.26638403 49.5108683 129.02731002 55.08898911 129.78643799 60.6673584 C130.44818909 65.52998055 131.11248881 70.39224292 131.78125 75.25390625 C131.87390892 75.92777374 131.96656784 76.60164124 132.06203461 77.29592896 C133.46732899 87.48322939 135.02111589 97.6409411 136.67767334 107.79032898 C137.84785264 114.971575 138.89096697 122.14901629 139.75 129.375 C139.87503906 130.38175781 140.00007812 131.38851562 140.12890625 132.42578125 C141 139.55726305 141 139.55726305 141 143 C136.38 143 131.76 143 127 143 C125.63803318 140.27606636 125.54358445 137.77723365 125.203125 134.74609375 C125.05034756 133.42030371 124.89734196 132.09453995 124.74414062 130.76879883 C124.62389526 129.71228622 124.62389526 129.71228622 124.5012207 128.63442993 C122.99577618 115.46928832 121.22340423 102.36725725 119.18237305 89.27508545 C117.362012 77.59233339 115.74238873 65.89325119 114.25585938 54.16333008 C114.10439453 52.98665771 113.95292969 51.80998535 113.796875 50.59765625 C113.66635742 49.56133057 113.53583984 48.52500488 113.40136719 47.45727539 C113.12550517 45.00335938 113.12550517 45.00335938 112 43 C111.56059082 43.90911133 111.12118164 44.81822266 110.66845703 45.75488281 C99.18336759 69.49810965 87.48307898 93.12801051 75.63525391 116.69238281 C75.09163712 117.77538666 74.54802032 118.8583905 73.9879303 119.97421265 C72.97104569 121.99987834 71.95248621 124.02470456 70.93186951 126.04849243 C68.12884727 131.63463445 65.47741188 137.26174904 63 143 C61.35 143 59.7 143 58 143 C54.01520305 135.05391036 50.0327689 127.10664182 46.05308819 119.15798855 C44.20371868 115.46439718 42.3536328 111.77116885 40.50170898 108.07885742 C32.6092724 92.34188159 24.76084939 76.59333687 17.22851562 60.6796875 C14.25417766 54.40207758 11.14509307 48.1935792 8 42 C5.80306279 52.45492815 4.34496804 62.89717962 3.12573242 73.50683594 C2.27043612 80.89828546 1.26283336 88.24831633 0.12719727 95.60131836 C-0.83279706 101.83029395 -1.71601057 108.06709883 -2.5625 114.3125 C-2.68737793 115.23224609 -2.81225586 116.15199219 -2.94091797 117.09960938 C-3.50459934 121.2707018 -4.05968793 125.44269895 -4.59765625 129.6171875 C-4.68781006 130.31158936 -4.77796387 131.00599121 -4.87084961 131.72143555 C-5.10683766 133.5469992 -5.33874544 135.37308904 -5.5703125 137.19921875 C-6 140 -6 140 -7 143 C-11.29 143 -15.58 143 -20 143 C-19.51389633 131.57656375 -17.95074167 120.49445319 -16.1328125 109.2109375 C-14.78449592 100.77892785 -13.60393512 92.32370473 -12.40734863 83.86914062 C-11.71702178 79.00685646 -11.01600694 74.14611301 -10.31640625 69.28515625 C-9.7312412 65.21101342 -9.14679891 61.13676713 -8.5625 57.0625 C-8.41037048 56.00247772 -8.25824097 54.94245544 -8.10150146 53.85031128 C-6.590536 43.31190696 -5.08211033 32.77380635 -3.69140625 22.21875 C-3.54980827 21.1440873 -3.54980827 21.1440873 -3.40534973 20.04771423 C-2.98152846 16.81724168 -2.56455718 13.58601485 -2.15454102 10.35375977 C-2.01330811 9.25862061 -1.8720752 8.16348145 -1.7265625 7.03515625 C-1.60877441 6.1006665 -1.49098633 5.16617676 -1.36962891 4.20336914 C-1 2 -1 2 0 0 Z " fill="#474D60" transform="translate(253,398)"/>
<path d="M0 0 C79.81642377 0 79.81642377 0 102.45703125 21.36328125 C116.51623217 35.94079372 121.31834421 54.52200646 121.4375 74.25 C121.4475708 75.32644775 121.4576416 76.40289551 121.46801758 77.51196289 C121.26783171 96.0696192 114.00053457 113.87688852 101.1875 127.3125 C74.84151035 152.3491257 32.0186659 144 0 144 C0 96.48 0 48.96 0 0 Z M14 15 C14 53.28 14 91.56 14 131 C56.54288637 132.96924049 56.54288637 132.96924049 92.6875 114.75 C100.29609875 106.66586383 103.38771768 97.63667774 106 87 C106.176521 86.3611084 106.35304199 85.7222168 106.53491211 85.06396484 C110.00438965 69.66713379 105.90261219 53.24269934 98 40 C89.43004318 27.11741975 77.72431145 20.75024087 63.1640625 16.61328125 C47.27341492 13.53324215 29.57349866 15 14 15 Z " fill="#484E61" transform="translate(745,397)"/>
<path d="M0 0 C4.88036595 3.55104722 8.96810618 7.89515885 13.125 12.25 C13.455 6.64 13.785 1.03 14.125 -4.75 C18.745 -4.75 23.365 -4.75 28.125 -4.75 C28.125 30.23 28.125 65.21 28.125 101.25 C23.505 101.25 18.885 101.25 14.125 101.25 C13.795 95.97 13.465 90.69 13.125 85.25 C11.92875 86.57 10.7325 87.89 9.5 89.25 C-0.99777073 99.69833068 -13.83642744 105.08083382 -28.625 105.75 C-41.16480193 105.43095637 -52.23724733 101.23966113 -61.875 93.25 C-62.50664063 92.77820313 -63.13828125 92.30640625 -63.7890625 91.8203125 C-73.82693071 83.99342848 -80.25579812 71.23430516 -82.59375 58.84765625 C-84.48853355 41.34722485 -81.29163096 25.4739137 -70.0625 11.4375 C-51.55360123 -8.34787455 -23.58968796 -14.6362362 0 0 Z M-59.171875 19.984375 C-67.98312336 31.70576043 -70.18153636 43.9220419 -68.875 58.25 C-66.31853816 69.84964696 -59.4729768 79.35353742 -49.7421875 86.07421875 C-39.4275692 92.56940726 -27.50717528 94.07590863 -15.5625 91.5625 C-4.34788005 87.57085561 5.10840125 80.55276996 10.90625 70.00390625 C15.73794745 59.08612835 17.31132815 45.87148444 13.5 34.4375 C7.89788485 21.05139327 -0.56155647 12.84577739 -13.875 7.25 C-30.54308279 2.39394438 -47.3379274 7.70803684 -59.171875 19.984375 Z " fill="#484F61" transform="translate(701.875,439.75)"/>
<path d="M0 0 C5.34348634 3.78023236 10.56030654 8.09436606 14.203125 13.55859375 C14.533125 7.61859375 14.863125 1.67859375 15.203125 -4.44140625 C19.493125 -4.44140625 23.783125 -4.44140625 28.203125 -4.44140625 C28.203125 30.53859375 28.203125 65.51859375 28.203125 101.55859375 C23.913125 101.55859375 19.623125 101.55859375 15.203125 101.55859375 C14.873125 95.94859375 14.543125 90.33859375 14.203125 84.55859375 C13.48125 85.52796875 12.759375 86.49734375 12.015625 87.49609375 C4.7664513 95.90787078 -5.19204227 101.5842834 -15.796875 104.55859375 C-16.74046875 104.84476563 -16.74046875 104.84476563 -17.703125 105.13671875 C-30.40175323 107.69539757 -44.13369685 104.85648262 -55.16796875 98.3515625 C-67.40699353 90.004293 -77.86969548 77.92192397 -81.35473633 63.20239258 C-84.15124312 46.48048641 -82.33085264 30.26478156 -72.76953125 16.15625 C-64.18448211 4.85118529 -53.34346702 -2.35766862 -39.796875 -6.44140625 C-39.18585938 -6.63347656 -38.57484375 -6.82554687 -37.9453125 -7.0234375 C-24.88893389 -9.56349661 -11.35342568 -6.74898082 0 0 Z M-58.6171875 20.57421875 C-66.60798957 30.77353396 -69.88230238 41.62099967 -68.796875 54.55859375 C-67.01621519 66.90989772 -60.73932797 77.89252732 -50.796875 85.55859375 C-39.28295396 92.26772331 -28.41298303 94.4325569 -15.2890625 91.875 C-4.23133315 88.46718315 4.3801699 81.26390663 10.5234375 71.44921875 C16.29836965 60.41268176 17.1642424 47.01420228 14.36328125 34.9375 C9.7728162 23.05175043 1.35203632 14.1248953 -9.98828125 8.46484375 C-27.60544557 1.84691767 -46.25817107 6.8891276 -58.6171875 20.57421875 Z " fill="#474D60" transform="translate(483.796875,439.44140625)"/>
<path d="M0 0 C38.23170406 0 38.23170406 0 50.33984375 11.265625 C56.17121556 17.35769343 56.34863297 23.6456273 56.28515625 31.734375 C55.89105636 36.24762853 54.53155742 39.30410258 52 43 C51.443125 43.886875 50.88625 44.77375 50.3125 45.6875 C44.42982561 51.57017439 36.52346776 54.7248103 28.26782227 55.22705078 C26.31187134 55.21134033 26.31187134 55.21134033 24.31640625 55.1953125 C22.39356812 55.18781982 22.39356812 55.18781982 20.43188477 55.18017578 C18.82498779 55.16196777 17.21809082 55.14375977 15.5625 55.125 C10.426875 55.08375 5.29125 55.0425 0 55 C0 36.85 0 18.7 0 0 Z " fill="#FDFDFD" transform="translate(896,472)"/>
<path d="M0 0 C0 4.29 0 8.58 0 13 C-1.629375 13.391875 -3.25875 13.78375 -4.9375 14.1875 C-15.10618733 17.007059 -22.4059793 21.54723085 -28.01036072 30.63908386 C-31.95265843 38.14321442 -31.60481045 45.93826129 -31.609375 54.19140625 C-31.62437844 55.74797772 -31.64111009 57.3045334 -31.65948486 58.86106873 C-31.70292837 62.92982774 -31.72310592 66.99837209 -31.73822021 71.06732178 C-31.75787492 75.23055596 -31.79983514 79.3935611 -31.83984375 83.55664062 C-31.91489648 91.70439482 -31.96327297 99.85198283 -32 108 C-36.62 108 -41.24 108 -46 108 C-46 73.02 -46 38.04 -46 2 C-41.71 2 -37.42 2 -33 2 C-32.67 6.29 -32.34 10.58 -32 15 C-30.9275 13.96875 -29.855 12.9375 -28.75 11.875 C-20.81791813 4.9537321 -10.67851349 0 0 0 Z " fill="#454C5F" transform="translate(576,433)"/>
<path d="M0 0 C4.063125 -0.0825 8.12625 -0.165 12.3125 -0.25 C13.56973877 -0.28641602 14.82697754 -0.32283203 16.12231445 -0.36035156 C24.98575457 -0.44646506 32.90061038 0.75464988 40 6.375 C45.10674464 13.07760234 45.98339214 18.68487316 45 27 C43.36542458 32.3519163 40.40921266 36.54931183 36 40 C23.71727377 45.99948344 14.73814308 45 0 45 C0 30.15 0 15.3 0 0 Z " fill="#FDFEFE" transform="translate(896,412)"/>
<path d="M0 0 C4.62 0 9.24 0 14 0 C14 34.98 14 69.96 14 106 C9.38 106 4.76 106 0 106 C0 71.02 0 36.04 0 0 Z " fill="#484F61" transform="translate(592,435)"/>
<path d="M0 0 C2.9375 2.4375 2.9375 2.4375 5 5 C5.33 5.33 5.66 5.66 6 6 C6.1273437 10.48431736 5.79286106 13.98414676 3 17.5625 C-1.10417149 19.52908217 -4.53939235 20.05667197 -9 19 C-12.63715985 15.95666217 -13.82298645 14.12108584 -14.5625 9.4375 C-13.91429589 5.47625263 -12.81200626 3.81200626 -10 1 C-6.78540014 -0.60729993 -3.47611897 -0.61930855 0 0 Z " fill="#484E61" transform="translate(603,398)"/>
<path d="M0 0 C-0.25170286 5.77658072 -0.52766532 9.89028705 -5 14 C-9.83857217 17.18905893 -13.3740378 17.53580592 -19 17 C-22 15.5 -22 15.5 -24 14 C-23.54661888 9.12615301 -22.57942756 6.39586718 -19 3 C-12.62893067 -0.24142124 -7.06288583 -0.35054764 0 0 Z " fill="#4B5163" transform="translate(788,70)"/>
<path d="M0 0 C0.7734375 0.495 0.7734375 0.495 1.5625 1 C0.5725 1.495 0.5725 1.495 -0.4375 2 C-0.91347366 4.70599842 -1.27843629 7.33595404 -1.5625 10.0625 C-1.64886719 10.82111328 -1.73523438 11.57972656 -1.82421875 12.36132812 C-2.03689517 14.23996986 -2.23825459 16.11988636 -2.4375 18 C-2.7675 18 -3.0975 18 -3.4375 18 C-3.4375 14.37 -3.4375 10.74 -3.4375 7 C-4.860625 7.144375 -6.28375 7.28875 -7.75 7.4375 C-8.55050781 7.51871094 -9.35101562 7.59992187 -10.17578125 7.68359375 C-12.59837179 7.95265693 -12.59837179 7.95265693 -15.4375 9 C-15.1075 7.35 -14.7775 5.7 -14.4375 4 C-15.7575 3.67 -17.0775 3.34 -18.4375 3 C-12.31909185 -0.10776287 -6.81917476 -2.79761016 0 0 Z " fill="#53596A" transform="translate(842.4375,40)"/>
<path d="M0 0 C2.58567818 0.25556122 5.16739048 0.52877041 7.75 0.8125 C8.84441406 0.91788086 8.84441406 0.91788086 9.9609375 1.02539062 C14.05529334 1.49065833 17.13691409 1.88827768 20 5 C20 5.99 20 6.98 20 8 C18.92105469 7.86722656 17.84210938 7.73445313 16.73046875 7.59765625 C5.49610882 6.25944945 -5.6978533 5.47614365 -17 5 C-17 4.67 -17 4.34 -17 4 C-11.39 4 -5.78 4 0 4 C0 2.68 0 1.36 0 0 Z " fill="#4D5366" transform="translate(390,295)"/>
<path d="M0 0 C3.3 0.33 6.6 0.66 10 1 C9.01 2.65 8.02 4.3 7 6 C-0.92 5.67 -8.84 5.34 -17 5 C-17 4.67 -17 4.34 -17 4 C-11.39 4 -5.78 4 0 4 C0 2.68 0 1.36 0 0 Z " fill="#666B7B" transform="translate(390,295)"/>
<path d="M0 0 C1.33333333 0.66666667 2.66666667 1.33333333 4 2 C3.25 3.9375 3.25 3.9375 2 6 C0.67203709 6.35412344 -0.66216607 6.68521554 -2 7 C-3.35308313 8.31328657 -4.68870078 9.64499081 -6 11 C-6.66 11 -7.32 11 -8 11 C-6.68206814 5.33289301 -4.51290803 3.33562767 0 0 Z " fill="#444A5D" transform="translate(453,286)"/>
<path d="M0 0 C0.33 0.99 0.66 1.98 1 3 C1.99 3.33 2.98 3.66 4 4 C2.84826645 6.46800047 1.95216435 8.04783565 0 10 C-0.33 9.34 -0.66 8.68 -1 8 C-1.598125 8.33 -2.19625 8.66 -2.8125 9 C-5 10 -5 10 -8 10 C-5.36 6.7 -2.72 3.4 0 0 Z " fill="#515668" transform="translate(463,271)"/>
<path d="M0 0 C0.99 0 1.98 0 3 0 C3.33 2.97 3.66 5.94 4 9 C3.01 9.495 3.01 9.495 2 10 C1.34 8.35 0.68 6.7 0 5 C-0.66 5 -1.32 5 -2 5 C-1.34 3.35 -0.68 1.7 0 0 Z " fill="#515669" transform="translate(371,398)"/>
<path d="M0 0 C0.1875 2.375 0.1875 2.375 0 5 C-3 7 -3 7 -5.6875 6.625 C-6.450625 6.41875 -7.21375 6.2125 -8 6 C-7 3 -7 3 -4 1.3125 C-1 0 -1 0 0 0 Z " fill="#474E60" transform="translate(512,234)"/>
<path d="M0 0 C1 3 1 3 0.109375 5.41015625 C-0.33921875 6.28542969 -0.7878125 7.16070312 -1.25 8.0625 C-1.68828125 8.94035156 -2.1265625 9.81820313 -2.578125 10.72265625 C-4 13 -4 13 -7 15 C-5.45454854 9.52067211 -2.84456788 4.88570819 0 0 Z " fill="#585C6C" transform="translate(350,441)"/>
<path d="M0 0 C-0.99 0.33 -1.98 0.66 -3 1 C-3.73323796 3.01508358 -3.73323796 3.01508358 -4 5 C-5.32 5.33 -6.64 5.66 -8 6 C-8.66 4.35 -9.32 2.7 -10 1 C-3.71428571 -1.42857143 -3.71428571 -1.42857143 0 0 Z " fill="#555B6C" transform="translate(585,211)"/>
<path d="M0 0 C0.99 0.33 1.98 0.66 3 1 C2.01 1.495 2.01 1.495 1 2 C1.33 3.32 1.66 4.64 2 6 C0.35 7.32 -1.3 8.64 -3 10 C-3.6875 8.25 -3.6875 8.25 -4 6 C-2.625 3.875 -2.625 3.875 -1 2 C-0.67 1.34 -0.34 0.68 0 0 Z " fill="#444A5D" transform="translate(833,79)"/>
<path d="M0 0 C0 0.99 0 1.98 0 3 C1.43750191 4.68798827 1.43750191 4.68798827 3 6 C2.01 6.66 1.02 7.32 0 8 C-0.66 7.34 -1.32 6.68 -2 6 C-3.32 6 -4.64 6 -6 6 C-4.75453595 2.26360784 -3.36595047 1.81243487 0 0 Z " fill="#505667" transform="translate(457,325)"/>
<path d="M0 0 C0.33 0.99 0.66 1.98 1 3 C-0.40445835 5.2636564 -2.1967913 7.0208685 -4 9 C-4.99 8.34 -5.98 7.68 -7 7 C-7 6.34 -7 5.68 -7 5 C-5.46875 3.7109375 -5.46875 3.7109375 -3.5 2.375 C-2.8503125 1.92898438 -2.200625 1.48296875 -1.53125 1.0234375 C-1.0259375 0.68570312 -0.520625 0.34796875 0 0 Z " fill="#4F5467" transform="translate(662,337)"/>
<path d="M0 0 C0.99 0.33 1.98 0.66 3 1 C2.67 1.66 2.34 2.32 2 3 C1.34 3 0.68 3 0 3 C0.33 4.32 0.66 5.64 1 7 C-0.98 7.99 -2.96 8.98 -5 10 C-3.66511872 6.40608886 -2.03977277 3.24509304 0 0 Z " fill="#54596A" transform="translate(709,105)"/>
<path d="M0 0 C0.99 0 1.98 0 3 0 C3.33 1.32 3.66 2.64 4 4 C1.69 4.66 -0.62 5.32 -3 6 C-1.125 1.125 -1.125 1.125 0 0 Z " fill="#4E5365" transform="translate(739,265)"/>
<path d="M0 0 C1.65 0 3.3 0 5 0 C5.66 1.32 6.32 2.64 7 4 C6.21625 3.95875 5.4325 3.9175 4.625 3.875 C1.83883881 3.71271266 1.83883881 3.71271266 0 6 C0 4 0 2 0 0 Z " fill="#434A5C" transform="translate(639,187)"/>
<path d="M0 0 C1.98 0.99 3.96 1.98 6 3 C5.01 3.33 4.02 3.66 3 4 C3 4.66 3 5.32 3 6 C1.68 5.34 0.36 4.68 -1 4 C-0.67 2.68 -0.34 1.36 0 0 Z " fill="#4C5263" transform="translate(833,408)"/>
<path d="M0 0 C0.598125 0.20625 1.19625 0.4125 1.8125 0.625 C1.8125 1.285 1.8125 1.945 1.8125 2.625 C2.8025 2.955 3.7925 3.285 4.8125 3.625 C2.8325 4.285 0.8525 4.945 -1.1875 5.625 C-0.8575 4.635 -0.5275 3.645 -0.1875 2.625 C-1.8375 2.295 -3.4875 1.965 -5.1875 1.625 C-2.1875 -0.375 -2.1875 -0.375 0 0 Z " fill="#575D6D" transform="translate(401.1875,354.375)"/>
<path d="M0 0 C1.32 0 2.64 0 4 0 C2.63016497 3.16115776 2.0109362 3.9927092 -1 6 C-1.66 5.34 -2.32 4.68 -3 4 C-2.34 4 -1.68 4 -1 4 C-0.67 2.68 -0.34 1.36 0 0 Z " fill="#53596A" transform="translate(955,524)"/>
<path d="M0 0 C0.75 1.75 0.75 1.75 1 4 C-0.8125 6.25 -0.8125 6.25 -3 8 C-3.66 8 -4.32 8 -5 8 C-3.62845496 5.04590299 -2.01136276 2.55991624 0 0 Z " fill="#555B6B" transform="translate(790,115)"/>
<path d="M0 0 C0.99 0.33 1.98 0.66 3 1 C2.01 2.98 1.02 4.96 0 7 C-0.66 7 -1.32 7 -2 7 C-2.33 6.01 -2.66 5.02 -3 4 C-1.5625 1.8125 -1.5625 1.8125 0 0 Z " fill="#43495C" transform="translate(822,90)"/>
<path d="M0 0 C0.99 0 1.98 0 3 0 C3 0.66 3 1.32 3 2 C4.32 2.33 5.64 2.66 7 3 C6.34 3 5.68 3 5 3 C5 3.66 5 4.32 5 5 C3.35 4.67 1.7 4.34 0 4 C0 2.66666667 0 1.33333333 0 0 Z " fill="#434A5C" transform="translate(408,298)"/>
<path d="M0 0 C0.99 0.33 1.98 0.66 3 1 C0.80090595 3.19909405 -1.56070254 5.07423885 -4 7 C-4.66 6.67 -5.32 6.34 -6 6 C-4.02 4.02 -2.04 2.04 0 0 Z " fill="#535767" transform="translate(422,444)"/>
</svg>
